# Blender 3.3.1
# www.blender.org
mtllib lapiz_madera.mtl
g Cylinder_Cylinder
v 0.001862 3.673660 -0.456820
v 0.001862 3.587713 -0.160405
v 0.051555 3.669386 -0.456820
v 0.036150 3.584881 -0.160405
v 0.099339 3.656730 -0.456820
v 0.069120 3.576494 -0.160405
v 0.143376 3.636177 -0.456820
v 0.099505 3.562876 -0.160405
v 0.181975 3.608518 -0.456820
v 0.126138 3.544548 -0.160405
v 0.213653 3.574815 -0.456820
v 0.147995 3.522215 -0.160405
v 0.237192 3.536364 -0.456820
v 0.164236 3.496737 -0.160405
v 0.251686 3.494641 -0.456820
v 0.174238 3.469090 -0.160405
v 0.256581 3.451252 -0.456820
v 0.177615 3.440339 -0.160405
v 0.251686 3.407862 -0.456820
v 0.174238 3.411588 -0.160405
v 0.237192 3.366140 -0.456820
v 0.164236 3.383942 -0.160405
v 0.213653 3.327688 -0.456820
v 0.147995 3.358463 -0.160405
v 0.181975 3.293985 -0.456820
v 0.126138 3.336130 -0.160405
v 0.143376 3.266326 -0.456820
v 0.099505 3.317802 -0.160405
v 0.099339 3.245773 -0.456820
v 0.069120 3.304184 -0.160405
v 0.051555 3.233117 -0.456820
v 0.036150 3.295797 -0.160405
v 0.001862 3.228843 -0.456820
v 0.001862 3.292966 -0.160406
v -0.047831 3.233117 -0.456820
v -0.032426 3.295797 -0.160405
v -0.095615 3.245773 -0.456820
v -0.065396 3.304184 -0.160405
v -0.139652 3.266326 -0.456820
v -0.095781 3.317802 -0.160405
v -0.178252 3.293985 -0.456820
v -0.122414 3.336130 -0.160405
v -0.209929 3.327688 -0.456820
v -0.144271 3.358463 -0.160405
v -0.233468 3.366140 -0.456820
v -0.160513 3.383942 -0.160405
v -0.247963 3.407862 -0.456820
v -0.170514 3.411588 -0.160405
v -0.252857 3.451252 -0.456820
v -0.173891 3.440339 -0.160405
v -0.247963 3.494641 -0.456820
v -0.170514 3.469090 -0.160405
v -0.233468 3.536364 -0.456820
v -0.160513 3.496737 -0.160405
v -0.209929 3.574815 -0.456820
v -0.144271 3.522215 -0.160405
v -0.178252 3.608518 -0.456820
v -0.122414 3.544548 -0.160405
v -0.139652 3.636177 -0.456820
v -0.095781 3.562876 -0.160405
v -0.095615 3.656730 -0.456820
v -0.065396 3.576494 -0.160405
v -0.047831 3.669386 -0.456820
v -0.032426 3.584881 -0.160405
v 0.001862 3.673660 -0.456820
v 0.051555 3.669386 -0.456820
v 0.099339 3.656730 -0.456820
v 0.143376 3.636177 -0.456820
v 0.181975 3.608518 -0.456820
v 0.213653 3.574815 -0.456820
v 0.237192 3.536364 -0.456820
v 0.251686 3.494641 -0.456820
v 0.256581 3.451252 -0.456820
v 0.251686 3.407862 -0.456820
v 0.237192 3.366140 -0.456820
v 0.213653 3.327688 -0.456820
v 0.181975 3.293985 -0.456820
v 0.143376 3.266326 -0.456820
v 0.099339 3.245773 -0.456820
v 0.051555 3.233117 -0.456820
v 0.001862 3.228843 -0.456820
v -0.047831 3.233117 -0.456820
v -0.095615 3.245773 -0.456820
v -0.139652 3.266326 -0.456820
v -0.178252 3.293985 -0.456820
v -0.209929 3.327688 -0.456820
v -0.233468 3.366140 -0.456820
v -0.247963 3.407862 -0.456820
v -0.252857 3.451252 -0.456820
v -0.247963 3.494641 -0.456820
v -0.233468 3.536364 -0.456820
v -0.209929 3.574815 -0.456820
v -0.178252 3.608518 -0.456820
v -0.139652 3.636177 -0.456820
v -0.095615 3.656730 -0.456820
v -0.047831 3.669386 -0.456820
v 0.001862 3.673660 -2.347225
v 0.051555 3.669386 -2.347225
v 0.099339 3.656730 -2.347225
v 0.143376 3.636177 -2.347225
v 0.181975 3.608518 -2.347225
v 0.213653 3.574815 -2.347225
v 0.237192 3.536364 -2.347225
v 0.251686 3.494641 -2.347225
v 0.256581 3.451252 -2.347225
v 0.251686 3.407862 -2.347225
v 0.237192 3.366140 -2.347225
v 0.213653 3.327688 -2.347225
v 0.181975 3.293985 -2.347225
v 0.143376 3.266326 -2.347225
v 0.099339 3.245773 -2.347225
v 0.051555 3.233117 -2.347225
v 0.001862 3.228843 -2.347225
v -0.047831 3.233117 -2.347225
v -0.095615 3.245773 -2.347225
v -0.139652 3.266326 -2.347225
v -0.178252 3.293985 -2.347225
v -0.209929 3.327688 -2.347225
v -0.233468 3.366140 -2.347225
v -0.247963 3.407862 -2.347225
v -0.252857 3.451252 -2.347225
v -0.247963 3.494641 -2.347225
v -0.233468 3.536364 -2.347225
v -0.209929 3.574815 -2.347225
v -0.178252 3.608518 -2.347225
v -0.139652 3.636177 -2.347225
v -0.095615 3.656730 -2.347225
v -0.047831 3.669386 -2.347225
v 0.001862 3.673660 -2.385712
v 0.051555 3.669386 -2.385712
v 0.099339 3.656730 -2.385712
v 0.143376 3.636177 -2.385712
v 0.181975 3.608518 -2.385712
v 0.213653 3.574815 -2.385712
v 0.237192 3.536364 -2.385712
v 0.251686 3.494641 -2.385712
v 0.256581 3.451252 -2.385712
v 0.251686 3.407862 -2.385712
v 0.237192 3.366140 -2.385712
v 0.213653 3.327688 -2.385712
v 0.181975 3.293985 -2.385712
v 0.143376 3.266326 -2.385712
v 0.099339 3.245773 -2.385712
v 0.051555 3.233117 -2.385712
v 0.001862 3.228843 -2.385712
v -0.047831 3.233117 -2.385712
v -0.095615 3.245773 -2.385712
v -0.139652 3.266326 -2.385712
v -0.178252 3.293985 -2.385712
v -0.209929 3.327688 -2.385712
v -0.233468 3.366140 -2.385712
v -0.247963 3.407862 -2.385712
v -0.252857 3.451252 -2.385712
v -0.247963 3.494641 -2.385712
v -0.233468 3.536364 -2.385712
v -0.209929 3.574815 -2.385712
v -0.178252 3.608518 -2.385712
v -0.139652 3.636177 -2.385712
v -0.095615 3.656730 -2.385712
v -0.047831 3.669386 -2.385712
v 0.001862 3.673660 -2.533881
v 0.051555 3.669386 -2.533881
v 0.099339 3.656730 -2.533881
v 0.143376 3.636177 -2.533881
v 0.181975 3.608518 -2.533881
v 0.213653 3.574815 -2.533881
v 0.237192 3.536364 -2.533881
v 0.251687 3.494641 -2.533881
v 0.256581 3.451252 -2.533881
v 0.251687 3.407862 -2.533881
v 0.237192 3.366140 -2.533881
v 0.213653 3.327688 -2.533881
v 0.181975 3.293985 -2.533881
v 0.143376 3.266326 -2.533881
v 0.099339 3.245773 -2.533881
v 0.051555 3.233117 -2.533881
v 0.001862 3.228843 -2.533881
v -0.047831 3.233117 -2.533881
v -0.095615 3.245773 -2.533881
v -0.139652 3.266326 -2.533881
v -0.178252 3.293985 -2.533881
v -0.209929 3.327688 -2.533881
v -0.233468 3.366140 -2.533881
v -0.247963 3.407862 -2.533881
v -0.252857 3.451252 -2.533881
v -0.247963 3.494641 -2.533881
v -0.233468 3.536364 -2.533881
v -0.209929 3.574815 -2.533881
v -0.178252 3.608518 -2.533881
v -0.139652 3.636177 -2.533881
v -0.095615 3.656730 -2.533881
v -0.047831 3.669386 -2.533881
v -0.000000 3.588581 -0.165488
v 0.035132 3.585694 -0.165488
v 0.068913 3.577145 -0.165488
v 0.100046 3.563262 -0.165488
v 0.127335 3.544579 -0.165488
v 0.149730 3.521814 -0.165488
v 0.166371 3.495841 -0.165488
v 0.176618 3.467659 -0.165488
v 0.180078 3.438351 -0.165488
v 0.176618 3.409042 -0.165488
v 0.166371 3.380860 -0.165488
v 0.149730 3.354887 -0.165488
v 0.127335 3.332122 -0.165488
v 0.100046 3.313439 -0.165488
v 0.068913 3.299556 -0.165488
v 0.035132 3.291008 -0.165488
v -0.000000 3.288121 -0.165488
v -0.035132 3.291008 -0.165488
v -0.068913 3.299556 -0.165488
v -0.100046 3.313439 -0.165488
v -0.127335 3.332122 -0.165488
v -0.149730 3.354887 -0.165488
v -0.166371 3.380860 -0.165488
v -0.176618 3.409042 -0.165488
v -0.180078 3.438351 -0.165488
v -0.176618 3.467659 -0.165488
v -0.166371 3.495841 -0.165488
v -0.149730 3.521814 -0.165488
v -0.127335 3.544579 -0.165488
v -0.100046 3.563262 -0.165488
v -0.068913 3.577145 -0.165488
v -0.035132 3.585694 -0.165488
v -0.000000 3.438351 0.165488
vn 0.0810 0.9573 0.2774
vn 0.2423 0.9298 0.2770
vn 0.4010 0.8734 0.2763
vn 0.5540 0.7858 0.2751
vn 0.6955 0.6645 0.2732
vn 0.8175 0.5087 0.2703
vn 0.9090 0.3210 0.2659
vn 0.9594 0.1100 0.2599
vn 0.9613 -0.1102 0.2523
vn 0.9145 -0.3229 0.2437
vn 0.8253 -0.5135 0.2350
vn 0.7042 -0.6727 0.2271
vn 0.5620 -0.7972 0.2204
vn 0.4075 -0.8874 0.2154
vn 0.2464 -0.9457 0.2121
vn 0.0824 -0.9741 0.2105
vn -0.0824 -0.9741 0.2105
vn -0.2464 -0.9457 0.2121
vn -0.4075 -0.8874 0.2154
vn -0.5620 -0.7972 0.2204
vn -0.7042 -0.6727 0.2271
vn -0.8253 -0.5135 0.2350
vn -0.9145 -0.3229 0.2437
vn -0.9613 -0.1102 0.2523
vn -0.9594 0.1100 0.2599
vn -0.9090 0.3210 0.2659
vn -0.8175 0.5087 0.2703
vn -0.6955 0.6645 0.2732
vn -0.5540 0.7858 0.2751
vn -0.4010 0.8734 0.2763
vn -0.0000 -0.0000 1.0000
vn -0.2423 0.9298 0.2770
vn -0.0810 0.9573 0.2774
vn 0.9937 -0.1121 -0.0000
vn 0.4229 -0.9062 -0.0000
vn 0.0857 0.9963 -0.0000
vn -0.7287 0.6849 -0.0000
vn 0.2560 -0.9667 -0.0000
vn 0.2560 0.9667 -0.0000
vn -0.5825 0.8129 -0.0000
vn 0.0857 -0.9963 -0.0000
vn 0.4229 0.9062 -0.0000
vn -0.4229 0.9062 -0.0000
vn -0.0857 -0.9963 -0.0000
vn 0.5825 0.8129 -0.0000
vn -0.2560 0.9667 -0.0000
vn -0.2560 -0.9667 -0.0000
vn 0.7287 0.6849 -0.0000
vn -0.0857 0.9963 -0.0000
vn -0.4229 -0.9062 -0.0000
vn 0.8529 0.5221 -0.0000
vn -0.5825 -0.8129 -0.0000
vn 0.9446 0.3282 -0.0000
vn -0.7287 -0.6849 -0.0000
vn 0.9937 0.1121 -0.0000
vn -0.8529 -0.5221 -0.0000
vn -0.9446 -0.3282 -0.0000
vn 0.9446 -0.3282 -0.0000
vn -0.9937 -0.1121 -0.0000
vn 0.8529 -0.5221 -0.0000
vn -0.9937 0.1121 -0.0000
vn 0.7287 -0.6849 -0.0000
vn -0.9446 0.3282 -0.0000
vn 0.5825 -0.8129 -0.0000
vn -0.8529 0.5221 -0.0000
vn -0.0000 -0.0000 -1.0000
vn 0.0746 0.9080 0.4122
vn 0.2231 0.8815 0.4161
vn 0.3689 0.8273 0.4237
vn 0.5089 0.7432 0.4343
vn 0.6378 0.6274 0.4467
vn 0.7480 0.4792 0.4592
vn 0.8298 0.3017 0.4695
vn 0.8737 0.1032 0.4754
vn 0.8737 -0.1032 0.4754
vn 0.8298 -0.3017 0.4695
vn 0.7480 -0.4792 0.4592
vn 0.6378 -0.6274 0.4467
vn 0.5089 -0.7432 0.4343
vn 0.3689 -0.8273 0.4237
vn 0.2231 -0.8815 0.4161
vn 0.0746 -0.9080 0.4122
vn -0.0746 -0.9080 0.4122
vn -0.2231 -0.8815 0.4161
vn -0.3689 -0.8273 0.4237
vn -0.5089 -0.7432 0.4343
vn -0.6378 -0.6274 0.4467
vn -0.7480 -0.4792 0.4592
vn -0.8298 -0.3017 0.4695
vn -0.8737 -0.1032 0.4754
vn -0.8737 0.1032 0.4754
vn -0.8298 0.3017 0.4695
vn -0.7480 0.4792 0.4592
vn -0.6378 0.6274 0.4467
vn -0.5089 0.7432 0.4343
vn -0.3689 0.8273 0.4237
vn -0.2231 0.8815 0.4161
vn -0.0746 0.9080 0.4122
vt 1.000000 0.500000
vt 0.000000 0.500000
vt 1.000000 1.000000
vt 0.250000 0.490000
vt 0.000000 1.000000
vt 0.968750 0.500000
vt 0.968750 1.000000
vt 0.296822 0.485388
vt 0.937500 0.500000
vt 0.937500 1.000000
vt 0.341844 0.471731
vt 0.906250 0.500000
vt 0.906250 1.000000
vt 0.383337 0.449553
vt 0.875000 0.500000
vt 0.875000 1.000000
vt 0.419706 0.419706
vt 0.843750 0.500000
vt 0.843750 1.000000
vt 0.449553 0.383337
vt 0.812500 0.500000
vt 0.812500 1.000000
vt 0.471731 0.341844
vt 0.781250 0.500000
vt 0.781250 1.000000
vt 0.485388 0.296822
vt 0.750000 0.500000
vt 0.750000 1.000000
vt 0.490000 0.250000
vt 0.718750 0.500000
vt 0.718750 1.000000
vt 0.485388 0.203178
vt 0.687500 0.500000
vt 0.687500 1.000000
vt 0.471731 0.158156
vt 0.656250 0.500000
vt 0.656250 1.000000
vt 0.449553 0.116663
vt 0.625000 0.500000
vt 0.625000 1.000000
vt 0.419706 0.080294
vt 0.593750 0.500000
vt 0.593750 1.000000
vt 0.383337 0.050447
vt 0.562500 0.500000
vt 0.562500 1.000000
vt 0.341844 0.028269
vt 0.531250 0.500000
vt 0.531250 1.000000
vt 0.296822 0.014612
vt 0.500000 0.500000
vt 0.500000 1.000000
vt 0.250000 0.010000
vt 0.468750 0.500000
vt 0.468750 1.000000
vt 0.203178 0.014612
vt 0.437500 0.500000
vt 0.437500 1.000000
vt 0.158156 0.028269
vt 0.406250 0.500000
vt 0.406250 1.000000
vt 0.116663 0.050447
vt 0.375000 0.500000
vt 0.375000 1.000000
vt 0.080294 0.080294
vt 0.343750 0.500000
vt 0.343750 1.000000
vt 0.050447 0.116663
vt 0.312500 0.500000
vt 0.312500 1.000000
vt 0.028269 0.158156
vt 0.281250 0.500000
vt 0.281250 1.000000
vt 0.014612 0.203178
vt 0.250000 0.500000
vt 0.250000 1.000000
vt 0.010000 0.250000
vt 0.218750 0.500000
vt 0.218750 1.000000
vt 0.014612 0.296822
vt 0.187500 0.500000
vt 0.187500 1.000000
vt 0.028269 0.341844
vt 0.156250 0.500000
vt 0.156250 1.000000
vt 0.050447 0.383337
vt 0.125000 0.500000
vt 0.125000 1.000000
vt 0.080294 0.419706
vt 0.093750 0.500000
vt 0.093750 1.000000
vt 0.116663 0.449553
vt 0.062500 0.500000
vt 0.158156 0.471731
vt 0.062500 1.000000
vt 0.031250 0.500000
vt 0.203178 0.485388
vt 0.031250 1.000000
vt 1.000000 0.500000
vt 0.968750 0.500000
vt 0.937500 0.500000
vt 0.906250 0.500000
vt 0.875000 0.500000
vt 0.843750 0.500000
vt 0.812500 0.500000
vt 0.781250 0.500000
vt 0.750000 0.500000
vt 0.718750 0.500000
vt 0.687500 0.500000
vt 0.656250 0.500000
vt 0.625000 0.500000
vt 0.593750 0.500000
vt 0.562500 0.500000
vt 0.531250 0.500000
vt 0.500000 0.500000
vt 0.468750 0.500000
vt 0.437500 0.500000
vt 0.406250 0.500000
vt 0.375000 0.500000
vt 0.343750 0.500000
vt 0.312500 0.500000
vt 0.281250 0.500000
vt 0.250000 0.500000
vt 0.218750 0.500000
vt 0.187500 0.500000
vt 0.156250 0.500000
vt 0.125000 0.500000
vt 0.093750 0.500000
vt 0.062500 0.500000
vt 0.031250 0.500000
vt 1.000000 0.500000
vt 0.968750 0.500000
vt 0.937500 0.500000
vt 0.906250 0.500000
vt 0.875000 0.500000
vt 0.843750 0.500000
vt 0.812500 0.500000
vt 0.781250 0.500000
vt 0.750000 0.500000
vt 0.718750 0.500000
vt 0.687500 0.500000
vt 0.656250 0.500000
vt 0.625000 0.500000
vt 0.593750 0.500000
vt 0.562500 0.500000
vt 0.531250 0.500000
vt 0.500000 0.500000
vt 0.468750 0.500000
vt 0.437500 0.500000
vt 0.406250 0.500000
vt 0.375000 0.500000
vt 0.343750 0.500000
vt 0.312500 0.500000
vt 0.281250 0.500000
vt 0.250000 0.500000
vt 0.218750 0.500000
vt 0.187500 0.500000
vt 0.156250 0.500000
vt 0.125000 0.500000
vt 0.093750 0.500000
vt 0.062500 0.500000
vt 0.031250 0.500000
vt 1.000000 0.500000
vt 0.968750 0.500000
vt 0.937500 0.500000
vt 0.906250 0.500000
vt 0.875000 0.500000
vt 0.843750 0.500000
vt 0.812500 0.500000
vt 0.781250 0.500000
vt 0.750000 0.500000
vt 0.718750 0.500000
vt 0.687500 0.500000
vt 0.656250 0.500000
vt 0.625000 0.500000
vt 0.593750 0.500000
vt 0.562500 0.500000
vt 0.531250 0.500000
vt 0.500000 0.500000
vt 0.468750 0.500000
vt 0.437500 0.500000
vt 0.406250 0.500000
vt 0.375000 0.500000
vt 0.343750 0.500000
vt 0.312500 0.500000
vt 0.281250 0.500000
vt 0.250000 0.500000
vt 0.218750 0.500000
vt 0.187500 0.500000
vt 0.156250 0.500000
vt 0.125000 0.500000
vt 0.093750 0.500000
vt 0.062500 0.500000
vt 0.031250 0.500000
vt 1.000000 0.500000
vt 0.968750 0.500000
vt 0.937500 0.500000
vt 0.906250 0.500000
vt 0.875000 0.500000
vt 0.843750 0.500000
vt 0.812500 0.500000
vt 0.781250 0.500000
vt 0.750000 0.500000
vt 0.718750 0.500000
vt 0.687500 0.500000
vt 0.656250 0.500000
vt 0.625000 0.500000
vt 0.593750 0.500000
vt 0.562500 0.500000
vt 0.531250 0.500000
vt 0.500000 0.500000
vt 0.468750 0.500000
vt 0.437500 0.500000
vt 0.406250 0.500000
vt 0.375000 0.500000
vt 0.343750 0.500000
vt 0.312500 0.500000
vt 0.281250 0.500000
vt 0.250000 0.500000
vt 0.218750 0.500000
vt 0.187500 0.500000
vt 0.156250 0.500000
vt 0.125000 0.500000
vt 0.093750 0.500000
vt 0.062500 0.500000
vt 0.031250 0.500000
vt 0.750000 0.490000
vt 0.250000 0.490000
vt 0.296822 0.485388
vt 0.796822 0.485388
vt 0.341844 0.471731
vt 0.841844 0.471731
vt 0.383337 0.449553
vt 0.883337 0.449553
vt 0.419706 0.419706
vt 0.919706 0.419706
vt 0.449553 0.383337
vt 0.949553 0.383337
vt 0.471731 0.341844
vt 0.971731 0.341844
vt 0.485388 0.296822
vt 0.985388 0.296822
vt 0.490000 0.250000
vt 0.990000 0.250000
vt 0.485388 0.203178
vt 0.985388 0.203178
vt 0.471731 0.158156
vt 0.971731 0.158156
vt 0.449553 0.116663
vt 0.949553 0.116663
vt 0.419706 0.080294
vt 0.919706 0.080294
vt 0.383337 0.050447
vt 0.883337 0.050447
vt 0.341844 0.028269
vt 0.841844 0.028269
vt 0.296822 0.014612
vt 0.796822 0.014612
vt 0.250000 0.010000
vt 0.750000 0.010000
vt 0.203178 0.014612
vt 0.703178 0.014612
vt 0.158156 0.028269
vt 0.658156 0.028269
vt 0.116663 0.050447
vt 0.616663 0.050447
vt 0.080294 0.080294
vt 0.580294 0.080294
vt 0.050447 0.116663
vt 0.550447 0.116663
vt 0.028269 0.158156
vt 0.528269 0.158156
vt 0.014612 0.203178
vt 0.514612 0.203178
vt 0.010000 0.250000
vt 0.510000 0.250000
vt 0.014612 0.296822
vt 0.514612 0.296822
vt 0.028269 0.341844
vt 0.528269 0.341844
vt 0.050447 0.383337
vt 0.550447 0.383337
vt 0.080294 0.419706
vt 0.580294 0.419706
vt 0.116663 0.449553
vt 0.616663 0.449553
vt 0.658156 0.471731
vt 0.158156 0.471731
vt 0.703178 0.485388
vt 0.203178 0.485388
vt 0.250000 0.250000
s 0
g Cylinder_madera
usemtl madera
f 1/1/1 2/3/1 4/7/1 3/6/1
f 3/6/2 4/7/2 6/10/2 5/9/2
f 5/9/3 6/10/3 8/13/3 7/12/3
f 7/12/4 8/13/4 10/16/4 9/15/4
f 9/15/5 10/16/5 12/19/5 11/18/5
f 11/18/6 12/19/6 14/22/6 13/21/6
f 13/21/7 14/22/7 16/25/7 15/24/7
f 15/24/8 16/25/8 18/28/8 17/27/8
f 17/27/9 18/28/9 20/31/9 19/30/9
f 19/30/10 20/31/10 22/34/10 21/33/10
f 21/33/11 22/34/11 24/37/11 23/36/11
f 23/36/12 24/37/12 26/40/12 25/39/12
f 25/39/13 26/40/13 28/43/13 27/42/13
f 27/42/14 28/43/14 30/46/14 29/45/14
f 29/45/15 30/46/15 32/49/15 31/48/15
f 31/48/16 32/49/16 34/52/16 33/51/16
f 33/51/17 34/52/17 36/55/17 35/54/17
f 35/54/18 36/55/18 38/58/18 37/57/18
f 37/57/19 38/58/19 40/61/19 39/60/19
f 39/60/20 40/61/20 42/64/20 41/63/20
f 41/63/21 42/64/21 44/67/21 43/66/21
f 43/66/22 44/67/22 46/70/22 45/69/22
f 45/69/23 46/70/23 48/73/23 47/72/23
f 47/72/24 48/73/24 50/76/24 49/75/24
f 49/75/25 50/76/25 52/79/25 51/78/25
f 51/78/26 52/79/26 54/82/26 53/81/26
f 53/81/27 54/82/27 56/85/27 55/84/27
f 55/84/28 56/85/28 58/88/28 57/87/28
f 57/87/29 58/88/29 60/91/29 59/90/29
f 59/90/30 60/91/30 62/95/30 61/93/30
f 4/8/31 2/4/31 64/97/31 62/94/31 60/92/31 58/89/31 56/86/31 54/83/31 52/80/31 50/77/31 48/74/31 46/71/31 44/68/31 42/65/31 40/62/31 38/59/31 36/56/31 34/53/31 32/50/31 30/47/31 28/44/31 26/41/31 24/38/31 22/35/31 20/32/31 18/29/31 16/26/31 14/23/31 12/20/31 10/17/31 8/14/31 6/11/31
f 61/93/32 62/95/32 64/98/32 63/96/32
f 63/96/33 64/98/33 2/5/33 1/2/33
f 65/99/31 96/130/31 95/129/31 94/128/31 93/127/31 92/126/31 91/125/31 90/124/31 89/123/31 88/122/31 87/121/31 86/120/31 85/119/31 84/118/31 83/117/31 82/116/31 81/115/31 80/114/31 79/113/31 78/112/31 77/111/31 76/110/31 75/109/31 74/108/31 73/107/31 72/106/31 71/105/31 70/104/31 69/103/31 68/102/31 67/101/31 66/100/31
g Cylinder_amarillo
usemtl amarillo
f 78/112/35 79/113/35 111/145/35 110/144/35
f 65/99/36 66/100/36 98/132/36 97/131/36
f 92/126/37 93/127/37 125/159/37 124/158/37
f 79/113/38 80/114/38 112/146/38 111/145/38
f 66/100/39 67/101/39 99/133/39 98/132/39
f 93/127/40 94/128/40 126/160/40 125/159/40
f 80/114/41 81/115/41 113/147/41 112/146/41
f 67/101/42 68/102/42 100/134/42 99/133/42
f 94/128/43 95/129/43 127/161/43 126/160/43
f 81/115/44 82/116/44 114/148/44 113/147/44
f 68/102/45 69/103/45 101/135/45 100/134/45
f 95/129/46 96/130/46 128/162/46 127/161/46
f 82/116/47 83/117/47 115/149/47 114/148/47
f 69/103/48 70/104/48 102/136/48 101/135/48
f 96/130/49 65/99/49 97/131/49 128/162/49
f 83/117/50 84/118/50 116/150/50 115/149/50
f 70/104/51 71/105/51 103/137/51 102/136/51
f 84/118/52 85/119/52 117/151/52 116/150/52
f 71/105/53 72/106/53 104/138/53 103/137/53
f 85/119/54 86/120/54 118/152/54 117/151/54
f 72/106/55 73/107/55 105/139/55 104/138/55
f 86/120/56 87/121/56 119/153/56 118/152/56
f 73/107/34 74/108/34 106/140/34 105/139/34
f 87/121/57 88/122/57 120/154/57 119/153/57
f 74/108/58 75/109/58 107/141/58 106/140/58
f 88/122/59 89/123/59 121/155/59 120/154/59
f 75/109/60 76/110/60 108/142/60 107/141/60
f 89/123/61 90/124/61 122/156/61 121/155/61
f 76/110/62 77/111/62 109/143/62 108/142/62
f 90/124/63 91/125/63 123/157/63 122/156/63
f 77/111/64 78/112/64 110/144/64 109/143/64
f 91/125/65 92/126/65 124/158/65 123/157/65
g Cylinder_metal
usemtl metal
f 105/139/34 106/140/34 138/172/34 137/171/34
f 119/153/57 120/154/57 152/186/57 151/185/57
f 106/140/58 107/141/58 139/173/58 138/172/58
f 120/154/59 121/155/59 153/187/59 152/186/59
f 107/141/60 108/142/60 140/174/60 139/173/60
f 121/155/61 122/156/61 154/188/61 153/187/61
f 108/142/62 109/143/62 141/175/62 140/174/62
f 122/156/63 123/157/63 155/189/63 154/188/63
f 109/143/64 110/144/64 142/176/64 141/175/64
f 123/157/65 124/158/65 156/190/65 155/189/65
f 110/144/35 111/145/35 143/177/35 142/176/35
f 97/131/36 98/132/36 130/164/36 129/163/36
f 124/158/37 125/159/37 157/191/37 156/190/37
f 111/145/38 112/146/38 144/178/38 143/177/38
f 98/132/39 99/133/39 131/165/39 130/164/39
f 125/159/40 126/160/40 158/192/40 157/191/40
f 112/146/41 113/147/41 145/179/41 144/178/41
f 99/133/42 100/134/42 132/166/42 131/165/42
f 126/160/43 127/161/43 159/193/43 158/192/43
f 113/147/44 114/148/44 146/180/44 145/179/44
f 100/134/45 101/135/45 133/167/45 132/166/45
f 127/161/46 128/162/46 160/194/46 159/193/46
f 114/148/47 115/149/47 147/181/47 146/180/47
f 101/135/48 102/136/48 134/168/48 133/167/48
f 128/162/49 97/131/49 129/163/49 160/194/49
f 115/149/50 116/150/50 148/182/50 147/181/50
f 102/136/51 103/137/51 135/169/51 134/168/51
f 116/150/52 117/151/52 149/183/52 148/182/52
f 103/137/53 104/138/53 136/170/53 135/169/53
f 117/151/54 118/152/54 150/184/54 149/183/54
f 104/138/55 105/139/55 137/171/55 136/170/55
f 118/152/56 119/153/56 151/185/56 150/184/56
g Cylinder_borrador
usemtl borrador
f 140/174/62 141/175/62 173/207/62 172/206/62
f 161/195/66 162/196/66 163/197/66 164/198/66 165/199/66 166/200/66 167/201/66 168/202/66 169/203/66 170/204/66 171/205/66 172/206/66 173/207/66 174/208/66 175/209/66 176/210/66 177/211/66 178/212/66 179/213/66 180/214/66 181/215/66 182/216/66 183/217/66 184/218/66 185/219/66 186/220/66 187/221/66 188/222/66 189/223/66 190/224/66 191/225/66 192/226/66
f 154/188/63 155/189/63 187/221/63 186/220/63
f 141/175/64 142/176/64 174/208/64 173/207/64
f 155/189/65 156/190/65 188/222/65 187/221/65
f 142/176/35 143/177/35 175/209/35 174/208/35
f 129/163/36 130/164/36 162/196/36 161/195/36
f 156/190/37 157/191/37 189/223/37 188/222/37
f 143/177/38 144/178/38 176/210/38 175/209/38
f 130/164/39 131/165/39 163/197/39 162/196/39
f 157/191/40 158/192/40 190/224/40 189/223/40
f 144/178/41 145/179/41 177/211/41 176/210/41
f 131/165/42 132/166/42 164/198/42 163/197/42
f 158/192/43 159/193/43 191/225/43 190/224/43
f 145/179/44 146/180/44 178/212/44 177/211/44
f 132/166/45 133/167/45 165/199/45 164/198/45
f 159/193/46 160/194/46 192/226/46 191/225/46
f 146/180/47 147/181/47 179/213/47 178/212/47
f 133/167/48 134/168/48 166/200/48 165/199/48
f 160/194/49 129/163/49 161/195/49 192/226/49
f 147/181/50 148/182/50 180/214/50 179/213/50
f 134/168/51 135/169/51 167/201/51 166/200/51
f 148/182/52 149/183/52 181/215/52 180/214/52
f 135/169/53 136/170/53 168/202/53 167/201/53
f 149/183/54 150/184/54 182/216/54 181/215/54
f 136/170/55 137/171/55 169/203/55 168/202/55
f 150/184/56 151/185/56 183/217/56 182/216/56
f 137/171/34 138/172/34 170/204/34 169/203/34
f 151/185/57 152/186/57 184/218/57 183/217/57
f 138/172/58 139/173/58 171/205/58 170/204/58
f 152/186/59 153/187/59 185/219/59 184/218/59
f 139/173/60 140/174/60 172/206/60 171/205/60
f 153/187/61 154/188/61 186/220/61 185/219/61
g Cylinder_Grafito
usemtl Grafito
f 193/228/67 225/291/67 194/229/67
f 194/229/68 225/291/68 195/231/68
f 195/231/69 225/291/69 196/233/69
f 196/233/70 225/291/70 197/235/70
f 197/235/71 225/291/71 198/237/71
f 198/237/72 225/291/72 199/239/72
f 199/239/73 225/291/73 200/241/73
f 200/241/74 225/291/74 201/243/74
f 201/243/75 225/291/75 202/245/75
f 202/245/76 225/291/76 203/247/76
f 203/247/77 225/291/77 204/249/77
f 204/249/78 225/291/78 205/251/78
f 205/251/79 225/291/79 206/253/79
f 206/253/80 225/291/80 207/255/80
f 207/255/81 225/291/81 208/257/81
f 208/257/82 225/291/82 209/259/82
f 209/259/83 225/291/83 210/261/83
f 210/261/84 225/291/84 211/263/84
f 211/263/85 225/291/85 212/265/85
f 212/265/86 225/291/86 213/267/86
f 213/267/87 225/291/87 214/269/87
f 214/269/88 225/291/88 215/271/88
f 215/271/89 225/291/89 216/273/89
f 216/273/90 225/291/90 217/275/90
f 217/275/91 225/291/91 218/277/91
f 218/277/92 225/291/92 219/279/92
f 219/279/93 225/291/93 220/281/93
f 220/281/94 225/291/94 221/283/94
f 221/283/95 225/291/95 222/285/95
f 222/285/96 225/291/96 223/288/96
f 193/227/66 194/230/66 195/232/66 196/234/66 197/236/66 198/238/66 199/240/66 200/242/66 201/244/66 202/246/66 203/248/66 204/250/66 205/252/66 206/254/66 207/256/66 208/258/66 209/260/66 210/262/66 211/264/66 212/266/66 213/268/66 214/270/66 215/272/66 216/274/66 217/276/66 218/278/66 219/280/66 220/282/66 221/284/66 222/286/66 223/287/66 224/289/66
f 223/288/97 225/291/97 224/290/97
f 224/290/98 225/291/98 193/228/98
