# Blender 3.3.1
# www.blender.org
mtllib libro.mtl
g Cube_Cube
v 1.017661 0.789791 -0.767278
v 1.017661 0.720067 -0.767278
v 1.017661 0.789791 0.721908
v 1.017661 0.720067 0.721908
v -1.022065 0.789791 -0.767278
v -1.022065 0.720067 -0.767278
v -1.022065 0.789791 0.721908
v -1.022065 0.720067 0.721908
v 1.000000 0.806511 0.721908
v -1.000000 0.806511 0.721908
v 1.000000 0.806511 -0.721908
v -1.000000 0.806511 -0.721908
v 1.000000 0.822790 0.721908
v -1.000000 0.822790 0.721908
v 1.000000 0.822790 -0.721908
v -1.000000 0.822790 -0.721908
v 1.000000 0.841386 0.721908
v -1.000000 0.841386 0.721908
v 1.000000 0.841386 -0.721908
v -1.000000 0.841386 -0.721908
v 1.000000 0.862243 0.721908
v -1.000000 0.862243 0.721908
v 1.000000 0.862243 -0.721908
v -1.000000 0.862243 -0.721908
v 1.000000 0.880994 0.721908
v -1.000000 0.880994 0.721908
v 1.000000 0.880994 -0.721908
v -1.000000 0.880994 -0.721908
v 1.000000 0.897351 0.721908
v -1.000000 0.897351 0.721908
v 1.000000 0.897351 -0.721908
v -1.000000 0.897351 -0.721908
v 1.000000 0.914361 0.721908
v -1.000000 0.914361 0.721908
v 1.000000 0.914361 -0.721908
v -1.000000 0.914361 -0.721908
v 1.000000 0.932836 0.721908
v -1.000000 0.932836 0.721908
v 1.000000 0.932836 -0.721908
v -1.000000 0.932836 -0.721908
v 1.017661 0.951304 0.721908
v -1.022065 0.951304 0.721908
v 1.017661 0.951304 -0.767493
v -1.022065 0.951304 -0.767493
v 1.017661 1.009638 0.721908
v -1.022065 1.009638 0.721908
v 1.017661 1.009638 -0.767493
v -1.022065 1.009638 -0.767493
v -1.022065 0.720067 0.763116
v -1.022065 0.789791 0.763116
v 1.017661 0.789791 0.763116
v 1.017661 0.720067 0.763116
v 1.017661 1.009805 0.721908
v -1.022065 1.009805 0.721908
v 1.017661 1.009805 0.763116
v -1.022065 1.009805 0.763116
v -0.864438 0.720067 -0.767278
v -0.864438 0.789791 0.721908
v -0.864438 0.720067 0.721908
v -0.864438 0.789791 -0.767278
v -0.864438 0.806511 0.721908
v -0.864438 0.806511 -0.721908
v -0.864438 0.822790 0.721908
v -0.864438 0.822790 -0.721908
v -0.864438 0.841386 0.721908
v -0.864438 0.841386 -0.721908
v -0.864438 0.862243 0.721908
v -0.864438 0.862243 -0.721908
v -0.864438 0.880994 0.721908
v -0.864438 0.880994 -0.721908
v -0.864438 0.897351 0.721908
v -0.864438 0.897351 -0.721908
v -0.864438 0.914361 0.721908
v -0.864438 0.914361 -0.721908
v -0.864438 0.932836 0.721908
v -0.864438 0.932836 -0.721908
v -0.864438 0.951304 0.721908
v -0.864438 0.951304 -0.767493
v -0.864438 1.009638 0.721908
v -0.864438 1.009638 -0.767493
v -0.864438 0.720067 0.763116
v -0.864438 1.009805 0.721908
v -0.864438 1.009805 0.763116
v -0.489607 0.720067 0.721908
v -0.489607 0.789791 -0.767278
v -0.489607 0.806511 -0.721908
v -0.489607 0.822790 -0.721908
v -0.489607 0.841386 -0.721908
v -0.489607 0.862243 -0.721908
v -0.489607 0.880994 -0.721908
v -0.489607 0.897351 -0.721908
v -0.489607 0.914361 -0.721908
v -0.489607 0.932836 -0.721908
v -0.489607 0.951304 -0.767493
v -0.489607 1.009638 -0.767493
v -0.489607 0.720067 0.763116
v -0.489607 0.720067 -0.767278
v -0.489607 0.789791 0.721908
v -0.489607 0.806511 0.721908
v -0.489607 0.822790 0.721908
v -0.489607 0.841386 0.721908
v -0.489607 0.862243 0.721908
v -0.489607 0.880994 0.721908
v -0.489607 0.897351 0.721908
v -0.489607 0.914361 0.721908
v -0.489607 0.932836 0.721908
v -0.489607 0.951304 0.721908
v -0.489607 1.009638 0.721908
v -0.489607 1.009805 0.721908
v -0.489607 1.009805 0.763116
v -1.022065 0.720067 -0.426336
v 1.017661 0.789791 -0.426336
v -1.022065 0.789791 -0.426336
v 1.017661 0.720067 -0.426336
v 1.000000 0.806511 -0.426336
v -1.000000 0.806511 -0.426336
v 1.000000 0.822790 -0.426336
v -1.000000 0.822790 -0.426336
v 1.000000 0.841386 -0.426336
v -1.000000 0.841386 -0.426336
v 1.000000 0.862243 -0.426336
v -1.000000 0.862243 -0.426336
v 1.000000 0.880994 -0.426336
v -1.000000 0.880994 -0.426336
v 1.000000 0.897351 -0.426336
v -1.000000 0.897351 -0.426336
v 1.000000 0.914361 -0.426336
v -1.000000 0.914361 -0.426336
v 1.000000 0.932836 -0.426336
v -1.000000 0.932836 -0.426336
v 1.017661 0.951304 -0.426336
v -1.022065 0.951304 -0.426336
v 1.017661 1.009638 -0.426336
v -1.022065 1.009638 -0.426336
v -0.864438 1.009638 -0.426336
v -0.489607 1.009638 -0.426336
v -1.022065 0.720067 0.468914
v 1.017661 0.789791 0.468914
v 1.000000 0.806511 0.468914
v 1.000000 0.822790 0.468914
v 1.000000 0.841386 0.468914
v 1.000000 0.862243 0.468914
v 1.000000 0.880994 0.468914
v 1.000000 0.897351 0.468914
v 1.000000 0.914361 0.468914
v 1.000000 0.932836 0.468914
v 1.017661 0.951304 0.468914
v 1.017661 1.009638 0.468914
v -0.864438 1.009638 0.468914
v -0.489607 1.009638 0.468914
v -1.022065 0.789791 0.468914
v 1.017661 0.720067 0.468914
v -1.000000 0.806511 0.468914
v -1.000000 0.822790 0.468914
v -1.000000 0.841386 0.468914
v -1.000000 0.862243 0.468914
v -1.000000 0.880994 0.468914
v -1.000000 0.897351 0.468914
v -1.000000 0.914361 0.468914
v -1.000000 0.932836 0.468914
v -1.022065 0.951304 0.468914
v -1.022065 1.009638 0.468914
v -0.864438 1.019232 -0.426336
v -0.489607 1.019232 -0.426336
v -0.864438 1.019232 0.468914
v -0.489607 1.019232 0.468914
v -0.489607 0.893389 -0.743264
v 1.000000 0.893389 -0.743264
v -0.489607 0.910399 -0.743264
v 1.000000 0.910399 -0.743264
v -1.000000 0.893389 -0.743264
v -1.000000 0.910399 -0.743264
v -0.864438 0.893389 -0.743264
v -0.864438 0.910399 -0.743264
v -0.489607 0.830635 -0.737372
v 1.000000 0.830635 -0.737372
v -0.489607 0.851492 -0.737372
v 1.000000 0.851492 -0.737372
v -1.000000 0.851492 -0.737372
v -1.000000 0.830635 -0.737372
v -0.864438 0.830635 -0.737372
v -0.864438 0.851492 -0.737372
v 1.011357 0.873001 0.468914
v 1.011357 0.873001 0.721908
v 1.011357 0.889357 0.468914
v 1.011357 0.889357 0.721908
v 1.011357 0.889357 -0.721908
v 1.011357 0.873001 -0.721908
v 1.011357 0.873001 -0.426336
v 1.011357 0.889357 -0.426336
v 1.012763 0.809452 0.468914
v 1.012763 0.809452 0.721908
v 1.012763 0.828048 0.468914
v 1.012763 0.828048 0.721908
v 1.012763 0.828048 -0.721908
v 1.012763 0.809452 -0.721908
v 1.012763 0.809452 -0.426336
v 1.012763 0.828048 -0.426336
vn -0.0000 -0.0000 1.0000
vn -0.0000 -0.0000 -1.0000
vn -0.0000 0.9383 -0.3458
vn 1.0000 -0.0000 -0.0000
vn -1.0000 -0.0000 -0.0000
vn -0.0000 1.0000 -0.0000
vn -0.0000 -1.0000 -0.0000
vn -0.6039 0.7970 -0.0000
vn -0.0000 -0.9268 -0.3755
vn -0.6418 -0.7669 -0.0000
vn 0.6875 0.7262 -0.0000
vn -0.5756 -0.8178 -0.0000
vn 0.7227 -0.6912 -0.0000
vn -0.0000 -0.9832 0.1824
vn -0.0000 0.9832 -0.1824
vn -0.0000 0.8211 -0.5709
vn -0.0000 -0.8211 0.5709
vn 0.5756 0.8178 -0.0000
vn -0.7225 -0.6914 -0.0000
vn 0.7225 0.6914 -0.0000
vt 0.625000 0.500000
vt 0.375000 0.500000
vt 0.625000 0.750000
vt 0.375000 0.750000
vt 0.625000 0.250000
vt 0.375000 0.250000
vt 0.125000 0.500000
vt 0.625000 1.000000
vt 0.625000 0.000000
vt 0.375000 0.000000
vt 0.125000 0.750000
vt 0.625000 0.750000
vt 0.625000 1.000000
vt 0.625000 0.000000
vt 0.625000 0.500000
vt 0.625000 0.250000
vt 0.625000 0.750000
vt 0.625000 1.000000
vt 0.625000 0.000000
vt 0.625000 0.500000
vt 0.625000 0.250000
vt 0.625000 0.750000
vt 0.625000 1.000000
vt 0.625000 0.000000
vt 0.625000 0.500000
vt 0.625000 0.250000
vt 0.625000 0.750000
vt 0.625000 1.000000
vt 0.625000 0.000000
vt 0.625000 0.500000
vt 0.625000 0.250000
vt 0.625000 0.750000
vt 0.625000 1.000000
vt 0.625000 0.000000
vt 0.625000 0.500000
vt 0.625000 0.250000
vt 0.625000 0.750000
vt 0.625000 1.000000
vt 0.625000 0.000000
vt 0.625000 0.500000
vt 0.625000 0.250000
vt 0.625000 0.750000
vt 0.625000 1.000000
vt 0.625000 0.000000
vt 0.625000 0.500000
vt 0.625000 0.250000
vt 0.625000 0.750000
vt 0.625000 1.000000
vt 0.625000 0.000000
vt 0.625000 0.500000
vt 0.625000 0.250000
vt 0.625000 0.750000
vt 0.625000 1.000000
vt 0.625000 0.000000
vt 0.625000 0.500000
vt 0.625000 0.250000
vt 0.625000 0.750000
vt 0.625000 0.000000
vt 0.625000 1.000000
vt 0.875000 0.750000
vt 0.625000 0.500000
vt 0.625000 0.250000
vt 0.875000 0.500000
vt 0.375000 1.000000
vt 0.375000 0.000000
vt 0.125000 0.750000
vt 0.625000 1.000000
vt 0.625000 0.000000
vt 0.625000 0.750000
vt 0.375000 0.750000
vt 0.625000 0.750000
vt 0.625000 0.000000
vt 0.625000 1.000000
vt 0.625000 0.750000
vt 0.625000 0.000000
vt 0.625000 1.000000
vt 0.375000 0.266945
vt 0.141945 0.500000
vt 0.625000 0.983055
vt 0.141945 0.750000
vt 0.625000 0.266945
vt 0.625000 0.983055
vt 0.625000 0.266945
vt 0.625000 0.983055
vt 0.625000 0.266945
vt 0.625000 0.983055
vt 0.625000 0.266945
vt 0.625000 0.983055
vt 0.625000 0.266945
vt 0.625000 0.983055
vt 0.625000 0.266945
vt 0.625000 0.983055
vt 0.625000 0.266945
vt 0.625000 0.983055
vt 0.625000 0.266945
vt 0.625000 0.983055
vt 0.625000 0.266945
vt 0.625000 0.983055
vt 0.625000 0.266945
vt 0.625000 0.983055
vt 0.858055 0.750000
vt 0.625000 0.266945
vt 0.858055 0.500000
vt 0.375000 0.983055
vt 0.141945 0.750000
vt 0.625000 0.983055
vt 0.625000 0.983055
vt 0.188799 0.750000
vt 0.625000 0.313799
vt 0.625000 0.313799
vt 0.625000 0.313799
vt 0.625000 0.313799
vt 0.625000 0.313799
vt 0.625000 0.313799
vt 0.625000 0.313799
vt 0.625000 0.313799
vt 0.625000 0.313799
vt 0.625000 0.313799
vt 0.625000 0.313799
vt 0.811201 0.500000
vt 0.375000 0.936201
vt 0.188799 0.750000
vt 0.375000 0.313799
vt 0.188799 0.500000
vt 0.625000 0.936201
vt 0.625000 0.936201
vt 0.625000 0.936201
vt 0.625000 0.936201
vt 0.625000 0.936201
vt 0.625000 0.936201
vt 0.625000 0.936201
vt 0.625000 0.936201
vt 0.625000 0.936201
vt 0.625000 0.936201
vt 0.625000 0.936201
vt 0.811201 0.750000
vt 0.625000 0.936201
vt 0.625000 0.936201
vt 0.375000 0.198821
vt 0.125000 0.551179
vt 0.625000 0.551179
vt 0.625000 0.198821
vt 0.375000 0.551179
vt 0.625000 0.551179
vt 0.625000 0.198821
vt 0.625000 0.551179
vt 0.625000 0.198821
vt 0.625000 0.551179
vt 0.625000 0.198821
vt 0.625000 0.551179
vt 0.625000 0.198821
vt 0.625000 0.551179
vt 0.625000 0.198821
vt 0.625000 0.551179
vt 0.625000 0.198821
vt 0.625000 0.551179
vt 0.625000 0.198821
vt 0.625000 0.551179
vt 0.625000 0.198821
vt 0.625000 0.551179
vt 0.625000 0.198821
vt 0.625000 0.551179
vt 0.625000 0.198821
vt 0.875000 0.551179
vt 0.858055 0.551179
vt 0.811201 0.551179
vt 0.375000 0.043806
vt 0.125000 0.706194
vt 0.625000 0.706194
vt 0.625000 0.706194
vt 0.625000 0.706194
vt 0.625000 0.706194
vt 0.625000 0.706194
vt 0.625000 0.706194
vt 0.625000 0.706194
vt 0.625000 0.706194
vt 0.625000 0.706194
vt 0.625000 0.706194
vt 0.625000 0.706194
vt 0.858055 0.706194
vt 0.811201 0.706194
vt 0.625000 0.043806
vt 0.375000 0.706194
vt 0.625000 0.043806
vt 0.625000 0.043806
vt 0.625000 0.043806
vt 0.625000 0.043806
vt 0.625000 0.043806
vt 0.625000 0.043806
vt 0.625000 0.043806
vt 0.625000 0.043806
vt 0.625000 0.043806
vt 0.625000 0.043806
vt 0.875000 0.706194
vt 0.858055 0.551179
vt 0.811201 0.551179
vt 0.858055 0.706194
vt 0.811201 0.706194
vt 0.625000 0.313799
vt 0.625000 0.500000
vt 0.625000 0.313799
vt 0.625000 0.500000
vt 0.625000 0.250000
vt 0.625000 0.250000
vt 0.625000 0.266945
vt 0.625000 0.266945
vt 0.625000 0.313799
vt 0.625000 0.500000
vt 0.625000 0.313799
vt 0.625000 0.500000
vt 0.625000 0.250000
vt 0.625000 0.250000
vt 0.625000 0.266945
vt 0.625000 0.266945
vt 0.625000 0.706194
vt 0.625000 0.750000
vt 0.625000 0.706194
vt 0.625000 0.750000
vt 0.625000 0.500000
vt 0.625000 0.500000
vt 0.625000 0.551179
vt 0.625000 0.551179
vt 0.625000 0.706194
vt 0.625000 0.750000
vt 0.625000 0.706194
vt 0.625000 0.750000
vt 0.625000 0.500000
vt 0.625000 0.500000
vt 0.625000 0.551179
vt 0.625000 0.551179
s 0
g Cube_hojas2
usemtl hojas2
f 60/81/3 5/5/3 12/16/3 62/83/3 86/110/3 11/15/3 1/1/3 85/109/3
f 98/125/1 3/3/1 9/12/1 99/126/1
f 99/126/1 9/12/1 13/17/1 100/127/1
f 100/127/1 13/17/1 17/22/1 101/128/1
f 62/83/2 12/16/2 16/21/2 64/85/2 87/111/2 15/20/2 11/15/2 86/110/2
f 23/30/4 19/25/4 176/208/4 178/210/4
f 101/128/1 17/22/1 21/27/1 102/129/1
f 64/85/2 16/21/2 20/26/2 66/87/2 88/112/2 19/25/2 15/20/2 87/111/2
f 102/129/1 21/27/1 25/32/1 103/130/1
f 104/131/1 29/37/1 33/42/1 105/132/1
f 103/130/1 25/32/1 29/37/1 104/131/1
f 68/89/2 24/31/2 28/36/2 70/91/2 90/114/2 27/35/2 23/30/2 89/113/2
f 70/91/2 28/36/2 32/41/2 72/93/2 91/115/2 31/40/2 27/35/2 90/114/2
f 105/132/1 33/42/1 37/47/1 106/133/1
f 106/133/1 37/47/1 41/52/1 107/134/1
f 74/95/2 36/46/2 40/51/2 76/97/2 93/117/2 39/50/2 35/45/2 92/116/2
f 107/134/1 41/52/1 45/57/1 108/135/1
f 58/79/2 7/8/2 54/73/2 82/106/2
f 98/125/2 58/79/2 82/106/2 109/137/2
f 42/53/1 77/98/1 79/100/1 46/59/1
f 38/48/1 75/96/1 77/98/1 42/53/1
f 34/43/1 73/94/1 75/96/1 38/48/1
f 26/33/1 69/90/1 71/92/1 30/38/1
f 30/38/1 71/92/1 73/94/1 34/43/1
f 22/28/1 67/88/1 69/90/1 26/33/1
f 18/23/1 65/86/1 67/88/1 22/28/1
f 14/18/1 63/84/1 65/86/1 18/23/1
f 10/13/1 61/82/1 63/84/1 14/18/1
f 7/8/1 58/79/1 61/82/1 10/13/1
f 3/3/2 98/125/2 109/137/2 53/71/2
f 77/98/1 107/134/1 108/135/1 79/100/1
f 75/96/1 106/133/1 107/134/1 77/98/1
f 73/94/1 105/132/1 106/133/1 75/96/1
f 69/90/1 103/130/1 104/131/1 71/92/1
f 71/92/1 104/131/1 105/132/1 73/94/1
f 67/88/1 102/129/1 103/130/1 69/90/1
f 65/86/1 101/128/1 102/129/1 67/88/1
f 63/84/1 100/127/1 101/128/1 65/86/1
f 61/82/1 99/126/1 100/127/1 63/84/1
f 58/79/1 98/125/1 99/126/1 61/82/1
f 158/189/5 30/39/5 34/44/5 159/190/5 128/157/5 36/46/5 32/41/5 126/155/5
f 159/190/5 34/44/5 38/49/5 160/191/5 130/159/5 40/51/5 36/46/5 128/157/5
f 157/188/5 26/34/5 30/39/5 158/189/5 126/155/5 32/41/5 28/36/5 124/153/5
f 155/186/5 18/24/5 22/29/5 156/187/5 122/151/5 24/31/5 20/26/5 120/149/5
f 156/187/5 22/29/5 26/34/5 157/188/5 124/153/5 28/36/5 24/31/5 122/151/5
f 154/185/5 14/19/5 18/24/5 155/186/5 120/149/5 20/26/5 16/21/5 118/147/5
f 151/182/8 7/9/8 10/14/8 153/184/8 116/145/8 12/16/8 5/5/8 113/142/8
f 153/184/5 10/14/5 14/19/5 154/185/5 118/147/5 16/21/5 12/16/5 116/145/5
f 76/97/9 40/51/9 44/56/9 78/99/9 94/118/9 43/55/9 39/50/9 93/117/9
f 160/191/10 38/49/10 42/54/10 161/192/10 132/161/10 44/56/10 40/51/10 130/159/10
f 112/141/11 1/1/11 11/15/11 115/144/11 139/170/11 9/12/11 3/3/11 138/169/11
f 115/144/4 11/15/4 15/20/4 117/146/4 140/171/4 13/17/4 9/12/4 139/170/4
f 123/152/12 27/35/12 188/220/12 189/221/12 183/215/12 184/216/12 25/32/12 143/174/12
f 119/148/4 19/25/4 23/30/4 121/150/4 142/173/4 21/27/4 17/22/4 141/172/4
f 121/150/4 23/30/4 27/35/4 123/152/4 143/174/4 25/32/4 21/27/4 142/173/4
f 125/154/4 31/40/4 35/45/4 127/156/4 145/176/4 33/42/4 29/37/4 144/175/4
f 127/156/4 35/45/4 39/50/4 129/158/4 146/177/4 37/47/4 33/42/4 145/176/4
f 129/158/13 39/50/13 43/55/13 131/160/13 147/178/13 41/52/13 37/47/13 146/177/13
f 173/205/2 171/203/2 172/204/2 174/206/2 169/201/2 170/202/2 168/200/2 167/199/2
f 35/45/4 31/40/4 168/200/4 170/202/4
f 72/93/14 32/41/14 171/203/14 173/205/14
f 31/40/14 91/115/14 167/199/14 168/200/14
f 32/41/5 36/46/5 172/204/5 171/203/5
f 91/115/14 72/93/14 173/205/14 167/199/14
f 181/213/2 180/212/2 179/211/2 182/214/2 177/209/2 178/210/2 176/208/2 175/207/2
f 20/26/5 24/31/5 179/211/5 180/212/5
f 36/46/15 74/95/15 92/116/15 35/45/15 170/202/15 169/201/15 174/206/15 172/204/15
f 24/31/16 68/89/16 89/113/16 23/30/16 178/210/16 177/209/16 182/214/16 179/211/16
f 88/112/17 66/87/17 181/213/17 175/207/17
f 66/87/17 20/26/17 180/212/17 181/213/17
f 19/25/17 88/112/17 175/207/17 176/208/17
f 189/221/4 188/220/4 187/219/4 190/222/4 185/217/4 186/218/4 184/216/4 183/215/4
f 27/35/2 31/40/2 187/219/2 188/220/2
f 29/37/1 25/32/1 184/216/1 186/218/1
f 197/229/4 196/228/4 195/227/4 198/230/4 193/225/4 194/226/4 192/224/4 191/223/4
f 31/40/18 125/154/18 144/175/18 29/37/18 186/218/18 185/217/18 190/222/18 187/219/18
f 15/20/2 19/25/2 195/227/2 196/228/2
f 13/17/19 140/171/19 117/146/19 15/20/19 196/228/19 197/229/19 191/223/19 192/224/19
f 17/22/1 13/17/1 192/224/1 194/226/1
f 119/148/20 141/172/20 17/22/20 194/226/20 193/225/20 198/230/20 195/227/20 19/25/20
g Cube_portadas
usemtl portadas
f 50/67/1 49/64/1 81/104/1 96/121/1 52/70/1 51/69/1 55/74/1 110/138/1 83/107/1 56/76/1
f 85/109/2 1/1/2 2/2/2 97/123/2 57/77/2 6/6/2 5/5/2 60/81/2
f 4/4/4 3/3/4 53/71/4 55/74/4 51/69/4 52/70/4
f 131/160/4 43/55/4 47/61/4 133/162/4 148/179/4 45/57/4 41/52/4 147/178/4
f 7/9/5 8/10/5 49/65/5 50/68/5 56/75/5 54/72/5
f 82/106/6 54/73/6 56/76/6 83/107/6 110/138/6 55/74/6 53/71/6 109/137/6
f 161/192/5 42/54/5 46/58/5 162/193/5 134/163/5 48/62/5 44/56/5 132/161/5
f 78/99/2 44/56/2 48/62/2 80/102/2 95/119/2 47/61/2 43/55/2 94/118/2
f 47/61/6 95/120/6 80/103/6 48/63/6 134/164/6 135/165/6 136/166/6 150/181/6 148/179/6 133/162/6
f 84/108/7 4/4/7 52/70/7 96/122/7 81/105/7 49/66/7 8/11/7 59/80/7
f 113/142/5 5/5/5 6/6/5 111/139/5 137/167/5 8/10/5 7/9/5 151/182/5
f 135/165/6 134/164/6 162/194/6 46/60/6 79/101/6 108/136/6 45/57/6 148/179/6 150/181/6 149/180/6
f 138/169/4 3/3/4 4/4/4 152/183/4 114/143/4 2/2/4 1/1/4 112/141/4
f 152/183/7 4/4/7 84/108/7 59/80/7 8/11/7 137/168/7 111/140/7 6/7/7 57/78/7 97/124/7 2/2/7 114/143/7
g Cube_hojas
usemtl hojas
f 149/180/1 150/181/1 166/198/1 165/197/1
f 164/196/6 163/195/6 165/197/6 166/198/6
f 150/181/4 136/166/4 164/196/4 166/198/4
f 135/165/5 149/180/5 165/197/5 163/195/5
f 136/166/2 135/165/2 163/195/2 164/196/2
