# Blender 3.4.1
# www.blender.org
mtllib pizarron.mtl
o Cube
v 7.801371 3.810692 -0.055277
v 7.801371 0.208628 -0.055277
v 7.984022 3.952006 0.055277
v 7.984022 0.002486 0.055277
v -7.801371 3.810692 -0.055277
v -7.801371 0.208628 -0.055277
v -7.984022 3.952006 0.055277
v -7.984022 0.002486 0.055277
v 7.984022 0.002486 -0.055277
v -7.984022 0.002486 -0.055277
v 7.984022 3.952006 -0.055277
v -7.984022 3.952006 -0.055277
v 7.801371 0.208628 0.041591
v -7.801371 0.208628 0.041591
v 7.801371 3.810692 0.041591
v -7.801371 3.810692 0.041591
v 7.791561 0.002486 -0.208534
v -7.791465 0.002486 -0.208534
v 7.987972 0.025970 -0.055692
v -7.980072 0.025970 -0.055692
v 7.795415 0.025970 -0.208949
v -7.787610 0.025970 -0.208949
v 7.686095 0.047583 -0.250909
v -7.685947 0.047583 -0.250909
v 7.689897 0.071066 -0.251324
v -7.682145 0.071066 -0.251324
vn -0.0000 1.0000 -0.0000
vn -0.0000 -0.0000 1.0000
vn -1.0000 -0.0000 -0.0000
vn -0.0000 -1.0000 -0.0000
vn 1.0000 -0.0000 -0.0000
vn -0.0000 -0.0000 -1.0000
vn 0.6186 -0.1165 -0.7770
vn -0.0000 0.6848 0.7288
vn -0.6203 0.0893 -0.7792
vn -0.0000 0.0177 0.9998
vn -0.0000 -0.0177 -0.9998
vn -0.0000 -0.6848 -0.7288
vn -0.3897 0.0473 -0.9197
vn 0.3448 -0.0728 -0.9358
vt 0.622140 0.497140
vt 0.377860 0.497140
vt 0.625000 0.750000
vt 0.375000 0.750000
vt 0.622140 0.252860
vt 0.377860 0.252860
vt 0.875000 0.750000
vt 0.625000 1.000000
vt 0.625000 0.000000
vt 0.375000 1.000000
vt 0.375000 0.000000
vt 0.125000 0.750000
vt 0.000000 0.000000
vt 0.375000 0.500000
vt 0.125000 0.500000
vt 0.000000 0.000000
vt 0.375000 0.250000
vt 0.625000 0.500000
vt 0.875000 0.500000
vt 0.625000 0.250000
vt 0.377860 0.497140
vt 0.377860 0.252860
vt 0.622140 0.497140
vt 0.622140 0.252860
vt 0.000000 0.000000
vt 0.000000 0.000000
vt 0.000000 0.000000
vt 0.375000 0.500000
vt 0.125000 0.500000
vt 0.000000 0.000000
vt 0.375000 0.250000
vt 0.375000 0.500000
vt 0.000000 0.000000
vt 0.125000 0.500000
vt 0.000000 0.000000
vt 0.000000 0.000000
vt 0.000000 0.000000
vt 0.375000 0.500000
vt 0.000000 0.000000
vt 0.125000 0.500000
vt 0.000000 0.000000
s 0
usemtl Material
f 11/18/1 12/19/1 7/7/1 3/3/1
f 4/4/2 3/3/2 7/8/2 8/10/2
f 8/11/3 7/9/3 12/20/3 10/17/3
f 10/15/4 9/14/4 4/4/4 8/12/4
f 9/14/5 11/18/5 3/3/5 4/4/5
f 1/1/3 2/2/3 13/21/3 15/23/3
f 6/6/6 2/2/6 9/14/6 10/17/6
f 2/2/6 1/1/6 11/18/6 9/14/6
f 5/5/6 6/6/6 10/17/6 12/20/6
f 1/1/6 5/5/6 12/20/6 11/18/6
f 14/22/6 16/24/6 15/23/6 13/21/6
f 6/6/5 5/5/5 16/24/5 14/22/5
f 2/2/1 6/6/1 14/22/1 13/21/1
f 5/5/4 1/1/4 15/23/4 16/24/4
f 9/13/7 17/25/7 21/33/7 19/27/7
f 20/29/1 19/28/1 21/32/1 22/34/1
f 22/34/8 21/32/8 25/38/8 26/40/8
f 18/26/9 10/16/9 20/30/9 22/35/9
f 10/17/10 9/14/10 19/28/10 20/31/10
f 23/36/11 24/37/11 26/41/11 25/39/11
f 17/25/12 18/26/12 24/37/12 23/36/12
f 18/26/13 22/35/13 26/41/13 24/37/13
f 21/33/14 17/25/14 23/36/14 25/39/14
